<svg xmlns="http://www.w3.org/2000/svg" width="480" height="220" viewBox="0 0 480 220">
  <rect width="480" height="220" fill="#fafbfc"/>
  <text x="16" y="28" font-family="Georgia, serif" font-size="15" fill="#222">Map → dual graph</text>
  <rect x="40" y="50" width="80" height="60" fill="#e8f1fb" stroke="#004586"/><text x="80" y="85" text-anchor="middle" font-size="12">1</text>
  <rect x="120" y="50" width="80" height="60" fill="#fde8e8" stroke="#a11"/><text x="160" y="85" text-anchor="middle" font-size="12">2</text>
  <rect x="40" y="110" width="80" height="60" fill="#e6f6ea" stroke="#1e7e34"/><text x="80" y="145" text-anchor="middle" font-size="12">3</text>
  <rect x="120" y="110" width="80" height="60" fill="#fff5e6" stroke="#b35c00"/><text x="160" y="145" text-anchor="middle" font-size="12">4</text>
  <path d="M220 110 L270 110" stroke="#666" stroke-width="2"/>
  <circle cx="320" cy="70" r="18" fill="#e8f1fb" stroke="#004586"/><text x="320" y="75" text-anchor="middle" font-size="12">1</text>
  <circle cx="400" cy="70" r="18" fill="#fde8e8" stroke="#a11"/><text x="400" y="75" text-anchor="middle" font-size="12">2</text>
  <circle cx="320" cy="150" r="18" fill="#e6f6ea" stroke="#1e7e34"/><text x="320" y="155" text-anchor="middle" font-size="12">3</text>
  <circle cx="400" cy="150" r="18" fill="#fff5e6" stroke="#b35c00"/><text x="400" y="155" text-anchor="middle" font-size="12">4</text>
  <line x1="338" y1="70" x2="382" y2="70" stroke="#333"/><line x1="320" y1="88" x2="320" y2="132" stroke="#333"/>
  <line x1="400" y1="88" x2="400" y2="132" stroke="#333"/><line x1="338" y1="150" x2="382" y2="150" stroke="#333"/>
  <line x1="335" y1="85" x2="385" y2="135" stroke="#333"/><line x1="385" y1="85" x2="335" y2="135" stroke="#333"/>
  <text x="16" y="200" font-size="12" fill="#444">Vertices = regions; edges = shared borders. 4-coloring maps ⇔ 4-coloring planar graphs.</text>
</svg>
